<?xml version="1.0" encoding="UTF-8" standalone="no"?><!DOCTYPE svg PUBLIC "-//W3C//DTD SVG 1.1//EN" "http://www.w3.org/Graphics/SVG/1.1/DTD/svg11.dtd"><svg width="100%" height="100%" viewBox="0 0 1600 534" version="1.1" xmlns="http://www.w3.org/2000/svg" xmlns:xlink="http://www.w3.org/1999/xlink" xml:space="preserve" xmlns:serif="http://www.serif.com/" style="fill-rule:evenodd;clip-rule:evenodd;stroke-linejoin:round;stroke-miterlimit:2;"><rect id="_3Stars" serif:id="3Stars" x="0" y="0" width="1600" height="533.333" style="fill:none;"/><path d="M265.506,25.64l72.374,166.858l181.056,17.27l-136.327,120.394l39.525,177.531l-156.628,-92.45l-156.629,92.45l39.525,-177.531l-136.327,-120.394l181.056,-17.27l72.375,-166.858Z" style="fill:#f3e700;"/><path d="M800,25.64l72.374,166.858l181.057,17.27l-136.327,120.394l39.525,177.531l-156.629,-92.45l-156.629,92.45l39.525,-177.531l-136.327,-120.394l181.057,-17.27l72.374,-166.858Z" style="fill:#f3e700;"/><path d="M1328.48,25.64l72.374,166.858l181.056,17.27l-136.326,120.394l39.525,177.531l-156.629,-92.45l-156.629,92.45l39.525,-177.531l-136.327,-120.394l181.057,-17.27l72.374,-166.858Z" style="fill:#f3e700;"/></svg>