<?xml version="1.0" encoding="UTF-8" standalone="no"?><!DOCTYPE svg PUBLIC "-//W3C//DTD SVG 1.1//EN" "http://www.w3.org/Graphics/SVG/1.1/DTD/svg11.dtd"><svg width="100%" height="100%" viewBox="0 0 2667 534" version="1.1" xmlns="http://www.w3.org/2000/svg" xmlns:xlink="http://www.w3.org/1999/xlink" xml:space="preserve" xmlns:serif="http://www.serif.com/" style="fill-rule:evenodd;clip-rule:evenodd;stroke-linejoin:round;stroke-miterlimit:2;"><rect id="_5Stars" serif:id="5Stars" x="0" y="0" width="2666.67" height="533.333" style="fill:none;"/><path d="M267.656,25.64l72.374,166.858l181.056,17.27l-136.326,120.394l39.524,177.531l-156.628,-92.45l-156.629,92.45l39.525,-177.531l-136.327,-120.394l181.056,-17.27l72.375,-166.858Z" style="fill:#f3e700;"/><path d="M809.539,25.64l72.374,166.858l181.056,17.27l-136.326,120.394l39.524,177.531l-156.628,-92.45l-156.629,92.45l39.525,-177.531l-136.327,-120.394l181.056,-17.27l72.375,-166.858Z" style="fill:#f3e700;"/><path d="M1344.12,25.64l72.375,166.858l181.056,17.27l-136.327,120.394l39.525,177.531l-156.629,-92.45l-156.628,92.45l39.524,-177.531l-136.326,-120.394l181.056,-17.27l72.374,-166.858Z" style="fill:#f3e700;"/><path d="M1868.23,25.64l72.375,166.858l181.056,17.27l-136.327,120.394l39.525,177.531l-156.629,-92.45l-156.628,92.45l39.524,-177.531l-136.326,-120.394l181.056,-17.27l72.374,-166.858Z" style="fill:#f3e700;"/><path d="M2398.89,25.64l72.375,166.858l181.056,17.27l-136.327,120.394l39.525,177.531l-156.629,-92.45l-156.628,92.45l39.524,-177.531l-136.326,-120.394l181.056,-17.27l72.374,-166.858Z" style="fill:#f3e700;"/></svg>